<svg width="576" height="576" viewBox="0 0 1152 768" fill="none" xmlns="http://www.w3.org/2000/svg">
  <!-- Briefcase -->
  <path d="M213 260L213 365C213 380 220 395 233 405L318 465C328 472 340 475 352 475L352 430C352 422 347 415 340 410L283 370C277 365 273 358 273 350L273 290C273 275 263 263 250 260L213 260Z" fill="#1a3a52" stroke="#1a3a52" stroke-width="8"/>
  <rect x="213" y="260" width="140" height="35" rx="8" fill="#1a3a52" stroke="#1a3a52" stroke-width="8"/>
  <path d="M250 260L250 240C250 225 262 213 277 213L327 213C342 213 354 225 354 240L354 260" fill="none" stroke="#1a3a52" stroke-width="8"/>
  <rect x="230" y="295" width="106" height="120" rx="10" fill="#1a3a52"/>
  <rect x="270" y="330" width="26" height="50" rx="5" fill="#0d1321"/>
  
  <!-- Backpack -->
  <path d="M380 240L495 240L495 290C495 305 510 318 525 318L525 490C525 505 513 518 498 518L377 518C362 518 350 505 350 490L350 270C350 253 363 240 380 240Z" fill="#4a5f3a" stroke="#4a5f3a" stroke-width="8"/>
  <ellipse cx="437.5" cy="240" rx="45" ry="25" fill="#4a5f3a"/>
  <path d="M392 240L392 220C392 205 405 193 420 193L455 193C470 193 483 205 483 220L483 240" fill="none" stroke="#4a5f3a" stroke-width="8"/>
  <rect x="400" y="290" width="75" height="90" rx="8" fill="#5a6f4a"/>
  <rect x="420" y="310" width="35" height="50" rx="5" fill="#3a4f2a"/>
  <circle cx="437.5" cy="430" r="15" fill="#3a4f2a"/>
  <path d="M365 350L365 480" stroke="#3a4f2a" stroke-width="10" stroke-linecap="round"/>
  <path d="M510 350L510 480" stroke="#3a4f2a" stroke-width="10" stroke-linecap="round"/>
  
  <!-- Winding Path -->
  <path d="M318 465C340 480 365 495 390 500C420 506 445 500 465 485" fill="none" stroke="#1a3a52" stroke-width="12" stroke-linecap="round"/>
  
  <!-- Text FROM -->
  <text x="540" y="320" font-family="Arial, sans-serif" font-size="48" font-weight="600" fill="#1a3a52">FROM</text>
  
  <!-- Text BOARDROOMS -->
  <text x="540" y="395" font-family="Arial, sans-serif" font-size="68" font-weight="800" fill="#0d1321">BOARDROOMS</text>
  
  <!-- Text TO -->
  <text x="540" y="455" font-family="Arial, sans-serif" font-size="48" font-weight="600" fill="#4a5f3a">TO</text>
  
  <!-- Text BACKROADS -->
  <text x="600" y="530" font-family="Arial, sans-serif" font-size="68" font-weight="800" fill="#4a5f3a">BACKROADS</text>
</svg>
